# xmcd CD database file
#
# Track frame offsets:
#	150
#	38254
#	76585
#	107513
#	152531
#	195219
#	226697
#
# Disc length: 3392 seconds
#
# Revision: 0
# Processed by: cddbd v1.5.2PL0 Copyright (c) Steve Scherf et al.
# Submitted via: CDex 1.51
#
DISCID=300d3e07
DTITLE=Subtrio feat. Paolo Fresu - Live at Sting
DYEAR=2007
DGENRE=Jazz
TTITLE0=01 Golden Earrings
TTITLE1=02 Dream Stepper
TTITLE2=03 Line for Lions
TTITLE3=04 It's You
TTITLE4=05 Whisper Not
TTITLE5=06 My Funny Valentine
TTITLE6=07 Line for Lions
EXTD=YEAR: 2007
EXTT0=
EXTT1=
EXTT2=
EXTT3=
EXTT4=
EXTT5=
EXTT6=
PLAYORDER=
